<svg xmlns="http://www.w3.org/2000/svg" width="555" height="312" viewBox="0 0 555 312"><defs><style>.a,.c,.h,.j{fill:none;}.b{fill:#eaf8ff;}.c,.h{stroke:#003963;}.c,.h,.j{stroke-linecap:round;stroke-linejoin:round;}.c,.j{stroke-width:1.5px;}.d{fill:#fac1b3;}.e{fill:#ffb4ab;}.f{fill:#f58670;}.g{fill:#2482c5;}.h{stroke-width:1.3px;}.i{fill:#66bbe3;}.j{stroke:#0a436a;}.k{fill:#008dd1;}.l{fill:#fff;}.m{fill:#99d1ed;}.n{fill:#003963;}.o{fill:#cce8f6;}.p{fill:#4eb5e5;}</style></defs><g transform="translate(-77 -327)"><g transform="translate(0 -144)"><path class="a" d="M0,0H555V312H0Z" transform="translate(77 471)"/><g transform="translate(-307.873 -43)"><g transform="translate(-32.925 59)"><path class="b" d="M987.767,363.14c-54.053-4.129-110.279,4.066-156.855,30.491-44.8,25.417-92.052,71.257-107.984,119.446-9.119,27.584-6.033,60.415,14.68,81.575,17.749,18.132,44.724,24.77,70.375,29.038,70.881,11.793,138.335,6.668,205.315-18.813,29.65-11.28,53.381-34.171,51.216-66.877-.8-12.026-5.129-24.122-2.395-35.888,3.418-14.706,16.9-25.116,24.654-38.249,8.677-14.7,9.784-33.055,3.781-48.922-6.755-17.854-21.771-32.1-40.174-39.052C1030.454,368.361,1009.063,364.766,987.767,363.14Z" transform="translate(-211.271 115.872)"/></g><g transform="translate(-300.581 -676.408)"><g transform="translate(796.185 1368.521)"><path class="c" d="M-1225.136,739.311s131.808-1.475,175.806,0,123.989-2.91,123.989-2.91" transform="translate(1256.123 -652.904)"/><g transform="translate(0 0)"><path class="c" d="M-1197.321,642.666c-5.507,15.527-3.26,61.571-4.544,68.716" transform="translate(1251.222 -633.161)"/><path class="c" d="M-1200.626,719.886c-1.67-16.511-28.718-44.217-28.718-44.217" transform="translate(1257.009 -640.112)"/><path class="c" d="M-1181.587,676.2c-7.657,2.783-17.533,21.708-19.2,32.467" transform="translate(1250.995 -640.223)"/><path class="d" d="M-1214.875,667.592c-.035-.141-.074-.28-.118-.419-1.94-6.088-10.972-7.006-15.929-4.623a10.429,10.429,0,0,1-4.3,1.421c-2.263,0-.329-5.564-2.01-7.736a15.075,15.075,0,0,0-6.669-4.675,14.593,14.593,0,0,0-9.754-.514,9.163,9.163,0,0,0-6.256,7.094,1.55,1.55,0,0,0,.167,1.123c.385.529,1.178.449,1.831.385,3.23-.3,8.674,3.852,8.038,4.412s-3.8-1.57-5.83-1.839a7.115,7.115,0,0,0-8.5,5.388,7.1,7.1,0,0,0-.172,1.637,22.867,22.867,0,0,0,.724,6.552,1.5,1.5,0,0,0,.382.847c.583.508,1.443-.114,1.973-.674a23.88,23.88,0,0,1,7.056-5.106c2.536-1.2,7.921-1,7.966-.09s-9.24,2.869-13.182,5.631a6.405,6.405,0,0,0-2.455,2.633c-.828,2.048.408,4.319,1.75,6.078a2.3,2.3,0,0,0,1.67,1.138,2.076,2.076,0,0,0,1.269-.631c2-1.755,3.137-4.278,4.894-6.269s6.613-3.087,7.04-2.169-3.777,2.659-5.666,3.99c-1.13.8-2.348,1.718-2.633,3.072a4.583,4.583,0,0,0,.873,3.284c4.649,7.359,12.161,3.888,18.221.4a5.241,5.241,0,0,0,2.671-2.684c.456-1.471-.34-3-.976-4.4-.815-1.8-2.945-6.017-1.711-6.452s4.2,5.609,4.2,8.288a2.46,2.46,0,0,0,.562,1.968c.789.65,1.951.039,2.768-.571,2.111-1.579,4.43-3.645,4.216-6.273-.272-3.35-4.292-4.867-6.3-7.563a1.681,1.681,0,0,1-.408-1.6c.378-.858,1.653-.669,2.49-.245a13.127,13.127,0,0,1,6.253,6.909c.276.71.607,1.564,1.354,1.729s1.43-.491,1.9-1.105C-1215.639,673.536-1214.165,670.518-1214.875,667.592Zm-35.929,8.272a2.344,2.344,0,0,1-1.1,1.124c-.287.147-1.051.522-1.258.092-.174-.362.25-1.1.479-1.355a.993.993,0,0,1,.226-.17c.631-.369,2.081-.69,1.653.309Zm4.323-18.095c-.173-.129-1.092-.931-.339-.931a1.174,1.174,0,0,1,.456.158,7.315,7.315,0,0,0,1.628.343,1.669,1.669,0,0,1,1.316.9.421.421,0,0,1,.026.257c-.18.639-1.763.031-2.1-.108a4.9,4.9,0,0,1-.995-.621Zm3.473,10.012a3.662,3.662,0,0,1-2.247-.074.876.876,0,0,1-.347-1.19h0a.887.887,0,0,1,.265-.3,2.011,2.011,0,0,1,1.156-.373,8.779,8.779,0,0,0,1.23-.089c.568-.118,1.995-.489,2.19.437.118.586-.886,1.3-2.251,1.587Zm6.283,14.744a11.41,11.41,0,0,1-.146,1.6c-.1.57-.395,1.4-1.123,1.327-.825-.079-.534-.906-.469-1.405a2.24,2.24,0,0,0-.245-.958c-.01-.031-.018-.064-.025-.095a2.571,2.571,0,0,1,.064-1.226.988.988,0,0,1,1.213-.692h0a.986.986,0,0,1,.572.422,2.089,2.089,0,0,1,.158,1.026Zm5.077-9.351a.579.579,0,0,1-.545-.135,3.274,3.274,0,0,1-.83-.89,3.017,3.017,0,0,1-.178-.316,1.754,1.754,0,0,1-.181-1.105.559.559,0,0,1,.137-.293.257.257,0,0,1,.3-.054c.287.174-.018.548.411.745.376.174.862.285,1.087.666.181.316.211,1.2-.2,1.379Zm6.315-8.295a4.115,4.115,0,0,1-1.342.024c-.446-.064-2.06-.421-1.828-1.159a.907.907,0,0,1,.345-.418,1.54,1.54,0,0,1,1.959-.243,5.9,5.9,0,0,0,.97.638,2.258,2.258,0,0,1,.466.2c.631.443-.184.882-.573.958Z" transform="translate(1264.391 -634.799)"/><path class="e" d="M-1160.206,681.238c-1.236-.521-2.478-1.026-3.737-1.5a31.622,31.622,0,0,0-7.778-1.945c-.093-.009-.208-.036-.23-.129s.054-.158.122-.205a5.558,5.558,0,0,1,5.017-.507,25.4,25.4,0,0,1,4.634,2.429,6.2,6.2,0,0,0,1.494.68.827.827,0,0,0,.834-.122.888.888,0,0,0,.133-.688,19.5,19.5,0,0,0-.834-3.652,4.81,4.81,0,0,0-2.059-2.866,32.676,32.676,0,0,0-3.365-1.829c-1.563-.819-6.4-7.3-10.949-5.032a7.539,7.539,0,0,0-3.494,3.018,2.655,2.655,0,0,1-1.554,1.437,3.63,3.63,0,0,1-1.763-.008c-1.443-.294-2.846-.77-4.3-1.026a7.756,7.756,0,0,0-4.349.275,9.358,9.358,0,0,0-3.88,3.757,18.312,18.312,0,0,0-1.729,3.135c-.182.449-.3,1.047.079,1.348a1.08,1.08,0,0,0,.652.17,14.051,14.051,0,0,0,2.741-.332,33.159,33.159,0,0,1,9.214-.3c.514.056,1.412.429.675.931-1.223.834-3.311.71-4.72.77-1.872.079-3.752.079-5.612.336a5.871,5.871,0,0,0-1.658.418,1.053,1.053,0,0,0-.5.395,1.222,1.222,0,0,0-.118.523,13.889,13.889,0,0,0,.244,5.346c1.2,3.62,6.748-1.862,8.191-2.921.86-.631,3.033-2.616,4.254-2.086.774.336-2.172,2.684-2.355,2.829l-1.164.934-2.238,1.8a8.119,8.119,0,0,0-2.228,1.973c-.6,1.051.42,2.368.963,3.26a1.855,1.855,0,0,0,.71.763,1.775,1.775,0,0,0,1.635-.311,15.568,15.568,0,0,0,2.368-1.95c1.3-1.224,2.58-2.476,3.886-3.7.642-.6,1.284-1.184,1.946-1.76a10.891,10.891,0,0,1,.929-.719c.175-.121,1.184-.755.88-.051-1.579,3.66-4.579,6.468-7.239,9.431-.335.373-.681.913-.4,1.329a1.069,1.069,0,0,0,.452.332,7.868,7.868,0,0,0,2.826.741,1.643,1.643,0,0,0,1.092-.2,1.62,1.62,0,0,0,.524-.893,25.337,25.337,0,0,1,.93-3.663c.422-.9,1.032-.167,1.125.484.171,1.205-.328,2.412-.291,3.631a1.21,1.21,0,0,0,.185.69,1.155,1.155,0,0,0,.907.377c1.541.058,5.417-.181,5.744,1.973.169,1.111,1.156.5,1.737.091.385-.274.737-.6,1.137-.852.305-.193.48-.133.781-.212,1.22-.328,1.789-2.009,1.913-3.124a5.991,5.991,0,0,0-1.721-4.547c-1.192-1.348-2.835-2.236-3.879-3.718-.118-.169-.227-.407-.094-.566a.462.462,0,0,1,.35-.118,3.862,3.862,0,0,1,1.252.2,7.6,7.6,0,0,1,3.862,3.558,18.574,18.574,0,0,0,2.483,3.5,1.144,1.144,0,0,0,.92.434,1.222,1.222,0,0,0,.572-.34,10.024,10.024,0,0,0,1.752-1.822,3.376,3.376,0,0,0,.632-2.391c-.237-1.458-1.685-2.526-2.858-3.255-2.644-1.637-5.719-2.544-8.2-4.42-.193-.145-.4-.379-.291-.594a.488.488,0,0,1,.25-.2,3.508,3.508,0,0,1,1.88-.193,10.362,10.362,0,0,1,3.724,1.426,26.219,26.219,0,0,1,7.262,6.163c.193.237.493.5.754.346a.623.623,0,0,0,.232-.356,11.806,11.806,0,0,0,.664-4.226C-1158.277,681.868-1159.182,681.676-1160.206,681.238Zm-24.34-6.605a.7.7,0,0,1-.271.253,4.988,4.988,0,0,1-1.673.728c-.546.108-1.679.158-1.906-.5a.971.971,0,0,1,.285-.906c.321-.327.951-.14,1.374-.273a4.635,4.635,0,0,1,1.073-.287c.388-.026,1.388.444,1.117.985Zm1.224,9.366c-.776-.535.474-1.421,1.044-1.379,1.111.079-.418,1.816-1.044,1.378Zm7.31,10.578a.583.583,0,0,1-.5-.026c-.42-.158-1.381-.38-1.194-.936.055-.164.226-.309.219-.5,0-.087-.055-.282-.074-.463-.029-.276.013-.52.395-.316a.8.8,0,0,1,.332.489,1.378,1.378,0,0,0,.253.545c.188.2.505.112.656.342a.739.739,0,0,1,.1.378.523.523,0,0,1-.189.484Zm.893-24.032a1.03,1.03,0,0,1-.242-1.437h0l.013-.018c.34-.327.83-.11,1.233-.117.3-.006.6-.09.9-.112.48-.036,1.25-.058,1.3.592.025.363.459.519.562.741.064.134,0,.29-.332.531a3.494,3.494,0,0,1-3.431-.18Z" transform="translate(1250.441 -637.949)"/><path class="c" d="M-1228.89,666.131c-2.156,3.294-5.205,8.138-5.419,12.178-.012.07-.025.158-.037.237-.05.339-.079.671-.1.995" transform="translate(1258.084 -638.103)"/><path class="c" d="M-1178.6,669.619a23.871,23.871,0,0,1,1.633,2.112c.079.111.158.226.237.338,2.588,2.082,2.588,5.683,3.76,8.461" transform="translate(1246.322 -638.838)"/><path class="f" d="M-1181,653.131a7.6,7.6,0,0,0-.62-3.029,6.115,6.115,0,0,0-2.243-2.131,49.6,49.6,0,0,0-6.364-3.182c-1.116-.5-2.255-.954-3.349-1.5-.438-.219-3.2-1.658-1.4-1.652,1.234,0,2.909,1.063,4.079,1.477q4.184,1.491,8.49,2.6a1.35,1.35,0,0,0,.774.043c.681-.237.559-1.233.28-1.894-.934-2.223-2.276-4.458-4.457-5.488-2.729-1.288-5.915-.353-8.9.079-.71.1-1.6.079-1.912-.553a1.206,1.206,0,0,1,.51-1.446,3.328,3.328,0,0,1,1.6-.429,41.414,41.414,0,0,1,8.2.094c-.616-1.673-2.19-2.77-3.677-3.754-1.392-.921-2.933-1.879-4.595-1.723a19.493,19.493,0,0,0-3.353,1.087c-1.6.455-3.468.282-4.759,1.336-.913.746-1.422,2.033-2.538,2.4-1.2.395-2.406-.463-3.571-.954a11.334,11.334,0,0,0-5.513-.474l-.291.029c-3.3.339-6.772.967-9.288,3.133-2.447,2.1-3.6,5.329-4.319,8.475a11.8,11.8,0,0,0-.339,4.828c.272,1.421,1.263,3.225,2.737,3.71a1.054,1.054,0,0,0,1.234-.358,1.866,1.866,0,0,0,.174-.654,7.516,7.516,0,0,1,2.746-4.14,25.571,25.571,0,0,1,8.422-4.965c-.913,2.171-2.645,3.824-4.237,5.5-1.705,1.8-3.262,3.757-4.839,5.668a2.8,2.8,0,0,0-.779,1.488,2.542,2.542,0,0,0,.82,1.763,12.738,12.738,0,0,0,5.835,3.718,1.406,1.406,0,0,0,1.938-.444,1.42,1.42,0,0,0,.179-.434c.963-2.357,1.441-4.883,2.279-7.287a15.119,15.119,0,0,1,2.082-4.109c.418-.559,2.289-2.941,2.548-1.291.223,1.409-.845,3.449-1.374,4.731a25.844,25.844,0,0,1-1.551,2.1,17.67,17.67,0,0,0-1.054,2.241,27.788,27.788,0,0,0-1.7,5.423c-.524,2.985,2.514,5.215,5.215,5.633,2.43.377,1.646-2.67,1.193-4.031-.9-2.708-.316-8.031,1.492-9.189s.9,5.635.474,7.657-2.02,7.365,1.25,8.186a8.735,8.735,0,0,1,3.079,1.46,3.968,3.968,0,0,0,2.763,1.131.562.562,0,0,0,.231-.037.6.6,0,0,0,.192-.158c1.615-1.764,4.342-2.6,5.418-4.815.807-1.658-1.532-4.44-2.368-5.728a16,16,0,0,1-2.851-6.18.549.549,0,0,1,.113-.52c.158-.122.385-.043.558.054a7.07,7.07,0,0,1,1.906,1.808q1.861,2.276,3.7,4.567c.7.868,2.082,3.477,3.362,3.473,1.129,0,2.235-3.356,2.412-4.29a4.419,4.419,0,0,0-.671-3.386c-1.437-2.124-4.075-3.286-6.089-4.763-4.443-3.259-5.042-3.531-3.981-4.515s5.984,2.7,11.568,6.084c.6.361,2.534,1.766,3.259,1.249a1,1,0,0,0,.37-.774A24.788,24.788,0,0,0-1181,653.131Zm-34.981,4.006c-.514.412-1.426.611-1.653-.139-.331-1.092.963-2.575,1.815-3.014a1.251,1.251,0,0,1,.578-.167.63.63,0,0,1,.271.057c.854.41-.608,2.94-1.014,3.26Zm-4.075-12.435c-.594.553-2.17,1.592-2.934.805a.885.885,0,0,1-.114-.141c-.993-1.5,1.78-2.832,2.8-3.041a1.362,1.362,0,0,1,.924.058c.875.482-.237,1.911-.676,2.319Zm6.859-5.967a8.07,8.07,0,0,1-1.887,1.258c-.642.257-2.729.78-3.035-.237a1.02,1.02,0,0,1-.036-.339,1.689,1.689,0,0,1,.7-1.137c.809-.669,3.552-1.694,4.57-.924.841.638.343.868-.316,1.381Zm8.117,12.551c-.07.417-.055,1.614-.886.963-.445-.35-.237-1.2.048-1.541a1.105,1.105,0,0,1,1.044-.395.556.556,0,0,1,.14.05.283.283,0,0,1,.133.138c.12.3-.422.466-.48.785Zm13.8,5.272c.489.593,1.32,1.121,1.566,1.88.2.632-.34,1.891-1.173,1.357-.71-.455-.963-1.8-1.1-2.555-.038-.2-.066-.408-.085-.614-.064-.657.553-.362.789-.069Zm-2.386-10.814c-.188.462-1.649.571-2.052.578a1.5,1.5,0,0,1-1.675-1.231.721.721,0,0,1,.087-.493c.4-.648,1.944-.449,2.5-.227.37.145,1.351.842,1.134,1.373Z" transform="translate(1256.867 -630.625)"/><path class="c" d="M-1199.163,637.971c1.239.435,1.313,1.5,1.7,2.564.623,1.737,1.635,3.236,2.131,5.039a29,29,0,0,1,1.026,6.631" transform="translate(1250.652 -632.172)"/><g transform="translate(34.524 59.523)"><path class="g" d="M-1220.654,707.244c.032-3.078,29.582.724,30.213.287.834-.575-6.315,36.083-6.118,35.12,0,0-18.253-.294-18.6-.536s-5.526-32.389-5.5-34.874" transform="translate(1220.655 -706.031)"/><path class="h" d="M-1220.325,716.138c9.925.748,19.849-1.087,29.774-.339" transform="translate(1220.585 -708.049)"/><path class="h" d="M-1219.416,721.319q14.045.394,28.1.442" transform="translate(1220.394 -709.251)"/></g></g></g><g transform="translate(896.477 1230.396)"><g transform="translate(123.49 98.584)"><path class="c" d="M-165.418,873.781v22.464" transform="translate(228.282 -834.996)"/><path class="i" d="M-193.96,795.221a67.422,67.422,0,0,1,.172,28.363c-.673,3.209-1.892,6.752-4.875,8.114a11.45,11.45,0,0,1-3.939.769l-37.4,2.8a228.17,228.17,0,0,1-6.846-27.978c-2.408-13.478,8.4-12.327,18.226-12.654C-225.415,794.531-194.416,793.166-193.96,795.221Z" transform="translate(270.254 -794.095)"/><path class="i" d="M-227.7,929.767a3.264,3.264,0,0,0,.55-3.152c-1.4-3.963-6.428-4.425-9.91-4.48-17.973-.282-35.961-1.639-53.753,1.241a5.363,5.363,0,0,0-2.259.729c-1.485,1.037-1.557,3.169-1.479,4.979.042.973.2,2.133,1.077,2.557a2.729,2.729,0,0,0,1.214.179c7.11-.039,14.132.088,21.283,0,13.53-.181,27-1.238,40.5-1.2a4.752,4.752,0,0,0,2.016-.287A2.294,2.294,0,0,0-227.7,929.767Z" transform="translate(294.574 -859.524)"/><path class="c" d="M-290.761,932.039c-1.907-1.247-1.487-4.4.236-5.894s4.157-1.765,6.43-1.934c14.145-1.048,28.354-.566,42.531-.084l11.232.383c2.383.081,4.94.223,6.821,1.688s2.453,4.777.48,6.115" transform="translate(293.26 -860.559)"/><path class="j" d="M-279.877,942.087h62" transform="translate(287.03 -870.055)"/><path class="c" d="M-267.874,950.506l41.522-.6a9.3,9.3,0,0,1,2.923.268c2.952.925,4.267,4.436,6.913,6.039l2.949-2.954a15.361,15.361,0,0,1-5.341-3.782" transform="translate(280.869 -873.849)"/><path class="c" d="M-225.027,942.085c.2,33.1.395,10.256.592,43.353" transform="translate(258.877 -870.054)"/><path class="c" d="M-285.4,1029.874a608.563,608.563,0,0,1,61.3.062" transform="translate(289.863 -914.733)"/><path class="c" d="M-271.566,994.19q23.137-.481,46.278.26" transform="translate(282.764 -896.701)"/><path class="c" d="M-215.289,797.045a214.54,214.54,0,0,1,37.37.6,58.78,58.78,0,0,1-.863,33.746q-15.539,1.346-31.152,1.449" transform="translate(253.879 -795.33)"/><path class="c" d="M-173.052,871.948q.638,12.342.314,24.709" transform="translate(232.2 -834.055)"/><circle class="i" cx="4.83" cy="4.83" r="4.83" transform="translate(2.691 117.663)"/><circle class="i" cx="4.83" cy="4.83" r="4.83" transform="translate(29.612 117.663)"/><circle class="i" cx="4.83" cy="4.83" r="4.83" transform="translate(56.533 117.663)"/><path class="c" d="M-279.855,1038.294c-.644-2.756-6.55-6.313-8.8-.369-1.959,5.169,1.263,5.9,1.263,5.9" transform="translate(291.861 -917.587)"/></g><g transform="translate(62.978 73.594)"><path class="k" d="M-372.895,766.589c-7.5-.427-14.221,4.344-21.523,6.1a27.379,27.379,0,0,1-10.1.5,23.086,23.086,0,0,0-3.988-.414,16.26,16.26,0,0,0-5.342,1.457,11.815,11.815,0,0,0-3.518,1.894,4.009,4.009,0,0,0-1.484,3.544,215.509,215.509,0,0,0,36.283,1.781,20.1,20.1,0,0,0,5.016-.623c1.579-.468,14.4.837,20.219-15.593.527-1.489,2.3-2.238,2.922-3.688a9.091,9.091,0,0,0-.13-6.447c-.868-2.565-2.806-11.714-5.457-12.266C-367.249,741.324-371.853,761.457-372.895,766.589Z" transform="translate(418.897 -742.753)"/><path class="c" d="M-366.5,791.353c-7.5-.427-15.293,4.511-22.594,6.266a27.382,27.382,0,0,1-10.1.5,23.1,23.1,0,0,0-3.988-.414,16.263,16.263,0,0,0-5.342,1.457" transform="translate(413.576 -767.685)"/></g><path class="l" d="M-264.724,882.484a13.581,13.581,0,0,1-5.6,6.166c-2.563,1.333-5.557,1.47-8.443,1.58l-27.122,1.033q6.363,29.229,10.836,58.827a14.1,14.1,0,0,1-9.11,4.7A121.225,121.225,0,0,0-316.2,932.35c-2.754-4.044-5.912-8.6-4.9-13.381-4.74,8.721-9.117,24.274-12.869,33.463-3.672-.728-4.431-1.627-6.328-2.783a3.516,3.516,0,0,1-1.292-1.114c-.357-.608-1.061-34.2-.545-45.7.525-11.674,4.378-20.844,7.816-32,1.645-5.338,7.41-6.138,11.506-9.137,3.192-2.337,5.174-5.995,8.195-8.551,3.37-2.851,7.827-4.137,12.226-4.508s8.818.1,13.224.357a139.443,139.443,0,0,0,14.492.1c2.128-.1,4.411-.2,6.222.919a8.9,8.9,0,0,1,2.864,3.4,32.213,32.213,0,0,1,1.8,26.974C-264.069,881.1-264.378,881.8-264.724,882.484Z" transform="translate(442.568 -723.435)"/><path class="m" d="M-293.637,684.744a25.478,25.478,0,0,0-4.409,1.47c-.342.145-.9.412-1.433.7-2.408,1.288-5.088,7.806-6.267,10.163-4.19,8.376-6.782,11.883-8.83,21.021a1.5,1.5,0,0,0-.036.76,1.521,1.521,0,0,0,.7.736l6.241,4.137a4.985,4.985,0,0,1,1.144.934,4.984,4.984,0,0,1,.786,1.691c.8,2.495.692,4.934,1.742,7.313,7.6,17.215,2.466,17.743,3.941,27.1a9.087,9.087,0,0,0,.905,2.519c.3.435,1.346.674,1.8.946,5.062,3.031,8.742.751,14.642.845q6.992.112,13.98-.282c2.233-.123,4.594-.261,6.875-.4,2.059-.123,4.33-.036,6.186-1.07.341-.19,1.444-20.021,1.575-29.232s-.3-18.554-3.035-27.353a43.113,43.113,0,0,0-9.262-16.55c-4.411-4.766-2.4-9.018-8.945-9.348C-279.515,680.636-289.645,683.829-293.637,684.744Z" transform="translate(428.367 -637.379)"/><path class="c" d="M-280.342,859.012a221.489,221.489,0,0,0-46.426,10.452,10.991,10.991,0,0,0-3.694,1.822c-1.755,1.5-2.408,3.894-2.912,6.148-5.037,22.533-5.952,51.144-4.987,74.213,0,0,.034,2.859,4.066,4.007" transform="translate(440.713 -728.831)"/><path class="c" d="M-285.02,810.562c1.605,5.5-.833,12.833.318,17.583a3.871,3.871,0,0,0,.751,1.728,3.776,3.776,0,0,0,1.8.946c13.139,3.886,24.942-2.733,38.629-2.1" transform="translate(413.162 -703.963)"/><path class="c" d="M-259.279,850.321c1.779,6.329,3.573,12.8,3.227,19.362s-3.224,13.364-8.869,16.732a25.383,25.383,0,0,1-8.422,2.808,78.476,78.476,0,0,1-33.84-1.118c-1.937,20.156-14.366,44.562-17.694,64.535" transform="translate(433.618 -724.37)"/><path class="c" d="M-273,934.431c4.116,8.4,4.865,17.981,6.3,27.227a174.216,174.216,0,0,0,7.623,30.577,3.111,3.111,0,0,1,.237,1.943,2.872,2.872,0,0,1-1.234,1.357,21.111,21.111,0,0,1-8.543,3.4" transform="translate(406.992 -767.542)"/><path class="c" d="M-294.629,723.871c1.212,6.388-4.141,12.369-4.016,18.87a22.893,22.893,0,0,0,.567,4.055l2.2,10.924" transform="translate(420.154 -659.467)"/><path class="c" d="M-223.848,1040.262s-1.252-5.257-6.01-2.828-3.088,5.378-2.505,6.738" transform="translate(386.524 -820.082)"/><path class="c" d="M-176.05,1044.246a17.721,17.721,0,0,1-.913-3.371c-.172-1.29-.131-2.953.9-3.891a4.245,4.245,0,0,1,4.906-.807c1.892.835,3.642,2.105,3.1,4.438" transform="translate(357.737 -819.539)"/><path class="n" d="M-223.993,1045.045c-.5-1.071-2.118-1.141-1.884.31C-225.6,1047.067-223.309,1046.509-223.993,1045.045Z" transform="translate(382.815 -823.91)"/><path class="n" d="M-168.332,1045.1a1.322,1.322,0,0,0-.671-.56.817.817,0,0,0-.568-.029,1,1,0,0,0-.431.346,2.314,2.314,0,0,0-.367.669c-.337.966,1.107,1.078,1.641.668C-168.421,1045.958-168.129,1045.482-168.332,1045.1Z" transform="translate(354.339 -824.023)"/><path class="n" d="M-280.113,1042.844c-2.846.407.923,4.493,2,1.945.459-1.084-.746-2.013-1.741-1.969A2.525,2.525,0,0,0-280.113,1042.844Z" transform="translate(411.177 -823.174)"/><path class="m" d="M-526.44,827.069s.2,27.921,0,32.779-1.01,12.225-.808,18.562-1.617,31.7-1.415,36.023-.016,23.91-.016,23.91l8.1,1.074s-.2-10.224,0-13.013,1.213-10.774,1.011-14.828.255-23.631.026-24.926,1.389-25.226,1.389-32.086V827.069Z" transform="translate(538.224 -712.436)"/><path class="m" d="M-109.466,822.745c.323,9.413.134,30.167,0,35.732s-.551,30.223-.457,35.2-.7,20.25-.759,24,0,18.618,0,18.618l7.625.481s1.417-25.805,1.2-33.482.57-12.578.291-15.441.4-49.111.4-49.111l-.928-17.925Z" transform="translate(323.69 -709.229)"/><path class="m" d="M-315.731,813.883a362.762,362.762,0,0,0-52.029-.822c-16.53.934-32.859,1.863-49.435,2.182-34.225.66-68.251-3.52-102.464-2.384l-27.617-.88c-1.009,0-1.088,4.9-.973,8.433.075,2.309,4.238,6.256,4.238,6.256l68.738-3.859c17.3-.574,34.248,1.139,51.55.594,16.614-.523,30.425-1.686,46.973-.381,19.417,1.532,41.6-4.143,61.02-2.612a10.044,10.044,0,0,0,.907-4.546C-314.823,812.573-315.731,813.883-315.731,813.883Z" transform="translate(548.288 -704.69)"/><path class="c" d="M-310.338,729.6s-8.059,12.86-4.976,14.286,8.321,5.853,8.321,5.853" transform="translate(429.07 -662.406)"/><path class="c" d="M-545.648,812.538c23.394,0,62.98,0,78.849,2.72s121.413-1.632,138.278-1.632,14.145.544,14.145.544" transform="translate(546.933 -704.977)"/><path class="c" d="M-314.375,829.3l-48.964,2.72c-9.793.544-62.565,0-75.078,0s-76.166.544-87.591,1.088a191.472,191.472,0,0,1-19.64,0" transform="translate(546.933 -713.583)"/><path class="k" d="M-268.106,1061.418a5.2,5.2,0,0,0-1.11.995,13.061,13.061,0,0,1-7.152,3.837,8.623,8.623,0,0,0-2.706.681,6.5,6.5,0,0,0-2.176,2.445c-2.15,3.457-4.429,7.036-7.9,9.16-.793.485-6.586,2.879-4.779,3.988a2.377,2.377,0,0,0,1.1.262c8.44.579,11.227,1.128,18.838-2.566a47.318,47.318,0,0,0,9.915-6.946c1-.876,3.052-2.38,3.139-3.876.119-2.044-2.766-4.878-3.876-6.435-.685-.96-1.692-2.008-2.838-1.727A1.746,1.746,0,0,0-268.106,1061.418Z" transform="translate(417.913 -832.604)"/><path class="k" d="M-358.481,1060.464a6.147,6.147,0,0,0-1.732-.15,12.33,12.33,0,0,1-6.723-2.05,13.146,13.146,0,0,0-3.089-1.869c-1.89-.605-3.908.154-5.839.614a19.4,19.4,0,0,1-8.513.1c-1.215-.26-5.511-2.181-6.461-1.127-1.219,1.353,2.4,4.162,3.3,4.937a43.5,43.5,0,0,0,11.4,6.614c3.371,1.449,6.815,2.718,10.258,3.987,2.424.894,5.8,2.6,7.313-.6,1.1-2.332,1.057-5.21,1.292-7.729a2.85,2.85,0,0,0-.47-2.288A1.705,1.705,0,0,0-358.481,1060.464Z" transform="translate(467.601 -829.77)"/><path class="k" d="M-264.333,595.9c-4.6-5.879-21.135-5.7-26.87-.077-1.972,1.933-5.785,4.871-5.97,10.453-.092,2.78,5.522,8.462,1.224,14.149-1.226,1.622-2.081,3.19-.321,3.934a4.221,4.221,0,0,1,2.62,2.295c1.036,1.863,1.141,5.192,3.16,6.291,1.128.615,2.326.266,3.489-.008a48.045,48.045,0,0,1,5.54-.922c.222-.026,3.34,17.118,3.687,18.892l.019.1c5.835-2.1,12.62-7.548,16.77-12.155,0,0-2.773-12.1-1.937-14.685C-262,621.328-258.369,603.533-264.333,595.9Z" transform="translate(419.448 -591.551)"/><path class="o" d="M-351.563,774.86l26.742-11.455-.67-1.217L-352.1,774.1Z" transform="translate(447.593 -679.134)"/><path class="o" d="M-347.35,778.115l.4.7,28.329-8.173-.579-1.774Z" transform="translate(445.153 -682.562)"/><path class="k" d="M-258.078,777.888a5.2,5.2,0,0,1-1.031,3.032,5.076,5.076,0,0,1-2.781,1.251c-7.4,1.559-15.035,1.277-22.6,1.413-8.084.146-25.409-4.174-30.387-7.063-.946-.549-5.225-1.291-6.026-1.642-3.817-1.675-3.683-2.452-4.467-3.631-1.233-1.856-2.951-1.193-4.885-1.791-1.29-.4-1.433-.656-.645-1.77a4.767,4.767,0,0,1,1.933-1.832c2.192-.739,2.406-.937,4.6-1.676.824-.277,6.948.223,12.3,6.727,2.286,2.779,8.411,3.1,21.365,2.934,5.479-.069,10.663-3.249,16.223-2.788.614.051,1.342.084,1.722-.4a1.694,1.694,0,0,0,.277-.823,22.866,22.866,0,0,0-.415-8.068q8.246-.1,16.469-.833C-256.516,766.6-257.446,772.265-258.078,777.888Z" transform="translate(436.956 -678.487)"/><path class="m" d="M-350.234,783.347a.728.728,0,0,0-1.424-.194.725.725,0,0,0-1.156.422.774.774,0,0,0-.425.1.758.758,0,0,0-1.253-.362c-.41-.443-1.321-.3-1.269.448l.154,2.2a.774.774,0,0,0,1.171.592.663.663,0,0,0-.042.176q-.056,3.742-.247,7.48c-.048.944,1.421.942,1.469,0q.191-3.738.247-7.48c0-.024-.01-.04-.012-.063a.847.847,0,0,0,.2.113q.066,4.508.132,9.017a.735.735,0,0,0,1.468,0l-.127-8.662a.708.708,0,0,0,1.157-.559Q-350.276,784.961-350.234,783.347Z" transform="translate(449.471 -689.634)"/><path class="o" d="M-383.95,804.374c.37,6.58,6.7,11.821,14.486,11.821s14.116-5.242,14.486-11.821Z" transform="translate(463.938 -700.787)"/><path class="c" d="M-290.671,786.453c-12.265-1.159-27.392-7.535-30.212-8.25s-4.445-1.951-4.467-3.631-2.856-1.455-4.885-1.791c-.878-.146-1.137-.115-1.113-.848.019-.613.926-1.647,1.334-2.034a10.767,10.767,0,0,1,5.665-2.4,5.43,5.43,0,0,1,4.262.748,20.429,20.429,0,0,1,6.381,4.172c3.459,3.169,1.934,3.684,9.2,4.226" transform="translate(436.94 -681.81)"/><path class="c" d="M-380.271,804.928c7.433.079,14.869.166,22.3.109,1.264-.009,2.521-.037,3.783-.1,1.643-.083.64,2.6.255,3.335-.925,1.751-5.961,8.359-10.929,8.209" transform="translate(462.05 -701.071)"/><path class="m" d="M-233.166,682.243a30.464,30.464,0,0,1,14.3,8.682,31.1,31.1,0,0,1,7.12,12.256c2.127,5.317,1.975,10.482,1.906,16.068a.86.86,0,0,1-.181.633.832.832,0,0,1-.189.123c-5.693,2.99-12.614,2.52-18.815.82-1.8-4.958-2.6-9.947-5.135-14.694-2.36-4.417-4.431-8.424-8.182-11.744-.324-.287,4.073-2.891,6.447-5.855A13.406,13.406,0,0,0-233.166,682.243Z" transform="translate(391.262 -638.101)"/><path class="c" d="M-201.379,704.278a28.455,28.455,0,0,1,6.24,12.49,85.055,85.055,0,0,1,1.844,13.971,38.49,38.49,0,0,1-18.71,1.526" transform="translate(375.684 -649.411)"/><path class="c" d="M-241.287,681.777a8.2,8.2,0,0,0,.033,1.32c.07,3.479-3.886,6.366-6.24,8.389-3.053,2.623-10.513,10.708-11.117,1.659" transform="translate(399.605 -637.861)"/></g><g transform="translate(904.439 1304.124)"><path class="p" d="M-476.792,807.272a1.539,1.539,0,0,0-.223-.174,2.736,2.736,0,0,0-1.621-.261c-6.744.3-13.5.281-20.247.266l-31.794-.069a1.387,1.387,0,0,0-.781.152,1.349,1.349,0,0,0-.436,1.085,17.153,17.153,0,0,0,.166,3.767H-480.5a31.425,31.425,0,0,0,4.376-.017.23.23,0,0,0,.142-.055.232.232,0,0,0,.038-.172C-476.012,810.221-475.894,808.62-476.792,807.272Z" transform="translate(531.932 -775.773)"/><path class="p" d="M-526.838,776.005c4.61-4.451,10.457-7.6,15.816-11.119l19.211-12.627,7.731-5.081-2.728-4.15-28.813,18.938c-5.364,3.525-11.3,6.636-15.574,11.516a2.679,2.679,0,0,0-.7,1.192,3.287,3.287,0,0,0,.253,1.639,4.766,4.766,0,0,0,.756,1.581,1.489,1.489,0,0,0,1.5.587,1.882,1.882,0,0,0,.764-.61Q-527.768,776.9-526.838,776.005Z" transform="translate(531.932 -743.028)"/></g><path class="c" d="M-505.477,806.7s26.689-.764,28.31-.224c.811.27.844,1.278.708,2.343,0,0,.691,1.272-3.754,1.649s-50.158.032-52.343-.388,1.32-1.991,1.32-1.991-5.34-2.35.22-5.082" transform="translate(1437.199 530.311)"/><g transform="translate(953.942 1314.668)"><path class="m" d="M-429.219,804.431c.457-5.953.546-11.95.957-17.886a.863.863,0,0,1,.18-.568.863.863,0,0,1,.5-.186c1.589-.234,3.262-.122,4.884-.2,1.086-.054,1.17,1.345,2.254,1.429A3.739,3.739,0,0,1-417,790.773c-.013,2.5.808,3.681.68,6.216a57.584,57.584,0,0,1-.662,6.627,2.349,2.349,0,0,1-.705,1.484,2.85,2.85,0,0,1-1.548.494,47.457,47.457,0,0,1-8.386.17c-.63-.043-1.4-.209-1.571-.818A1.571,1.571,0,0,1-429.219,804.431Z" transform="translate(429.713 -775.416)"/><path class="l" d="M-426.928,794.26a6.412,6.412,0,0,1,2.973-.81.8.8,0,0,1,.583.211.872.872,0,0,1,.154.472c.1.836.281,1.666.4,2.5a1.328,1.328,0,0,1-.037.732c-.379.832-2.508,1.147-3.3,1.057a.772.772,0,0,1-.578-.478,10.019,10.019,0,0,1-.475-3.173.539.539,0,0,1,.035-.313A.537.537,0,0,1-426.928,794.26Z" transform="translate(428.683 -779.449)"/><path class="c" d="M-429.26,788a.859.859,0,0,1,.18-.568.86.86,0,0,1,.5-.186c1.589-.234,3.262-.122,4.884-.2a31.015,31.015,0,0,1,3.78.15c.721.052,2.369-.021,2.7.838a1.445,1.445,0,0,1,.061.547l-.1,6.606c-.027,1.706-.088,3.411-.147,5.117a25.072,25.072,0,0,1-.237,4.567,3.164,3.164,0,0,1-2.589,2.179,47.462,47.462,0,0,1-8.386.169c-.63-.043-1.4-.209-1.571-.817a1.574,1.574,0,0,1-.026-.515c.458-5.953.547-11.949.957-17.885" transform="translate(430.225 -776.153)"/><path class="c" d="M-420.6,764.69a11.24,11.24,0,0,1-.8,1.771,29.118,29.118,0,0,0-1.515,2.642,12.723,12.723,0,0,0-.757,4.333c-.362,6.336-.326,12.36-.606,19.147,0,.052-.043.108-.094.1s-.042-.109.007-.095" transform="translate(427.239 -764.69)"/><path class="l" d="M-411.548,791.287a.628.628,0,0,1,.22.313.628.628,0,0,1-.072.356l-1.053,2.53c-.1.232-.235.5-.519.551a.976.976,0,0,1-.559-.115,16.627,16.627,0,0,1-2.542-1.386.573.573,0,0,1-.211-.2.455.455,0,0,1,.016-.335,12.325,12.325,0,0,1,1.4-2.966.523.523,0,0,1,.282-.254.617.617,0,0,1,.332.028A9,9,0,0,1-411.548,791.287Z" transform="translate(423.083 -777.563)"/></g><path class="n" d="M-284.793,578.629c3.9-.122,8.581-1.307,13.136-.677l.066-1.833c.12-3.352,2.236-7.257,5.94-7.346a10.222,10.222,0,0,1,5.271,1.663,12.761,12.761,0,0,1,5.83,6.206,7.213,7.213,0,0,1-.363,5.9c-1.239,2.207-3.008,2.339-5.21,3.047.3.37.587.743.87,1.126a35.3,35.3,0,0,1,2.294,4.727,36.314,36.314,0,0,1,.972,5.348,50.07,50.07,0,0,1-.9,8.858,49.867,49.867,0,0,1-3.043,8.381c-1.056,1.864-2,3.917-5.594,2.217,0,0-1.287-9.246-4.544-11.9,0,0-3.465-.186-4.192,2.742-.167.672-.552,2.188-1.546,1.866-1.373-.446-1.726-2.272-2.117-3.474a6.558,6.558,0,0,0-1.813-2.878,7,7,0,0,0-6.158-1.228l-.375-3.713c-.056-.552-.838-1.075-1.142-.611l-2.293,4.412s-10.659.873-11.5-1.4,2.081-20.985,16.412-21.433" transform="translate(1318.013 650.538)"/></g></g></g></g></svg>