<svg xmlns="http://www.w3.org/2000/svg" width="384.117" height="286.301"><defs><linearGradient id="a" x1="1" y1="1" x2="-.009" y2="1" gradientUnits="objectBoundingBox"><stop offset="0" stop-color="#263238"/><stop offset="1" stop-color="#e5e5e5"/></linearGradient><style>.a{fill:#dcedff}.b{fill:#a2cfff}.c{fill:#fafafa}.d{fill:#f5f5f5}.f{fill:#cfe6ff}.h{fill:#fff}.k{fill:#125396}.l{fill:#e8505b}.m{fill:#64aaf8}.n{fill:#263238}.p{fill:#002852}.q{fill:#ffbe9d}.r{fill:#eb996e}.s{fill:#2c3a64}.t{fill:#6877dd}.w{fill:#414141}.aa{fill:#ffb27d}.ab{fill:#e49560}</style></defs><path class="a" d="M242.866 154.201v-3.938h29.476v3.938z"/><path class="a" d="M246.882 150.427a9.284 9.284 0 010 3.69 9.258 9.258 0 010-3.69zM246.241 150.346a9.287 9.287 0 010 3.69 9.255 9.255 0 010-3.69zM270.063 150.427a9.291 9.291 0 010 3.69 9.29 9.29 0 010-3.69z"/><ellipse class="b" cx=".185" cy="1.845" rx=".185" ry="1.845" transform="translate(269.236 150.346)"/><path class="b" d="M265.572 152.351c0 .1-3.376.186-7.54.186s-7.54-.083-7.54-.186 3.375-.185 7.54-.185 7.54.083 7.54.185z"/><path class="a" d="M242.738 175.869v-7.876h29.476v7.876z"/><path class="b" d="M272.591 173.653a.635.635 0 01-.16.092 7.237 7.237 0 01-.491.225 8.543 8.543 0 01-2 .571 5.206 5.206 0 01-3.243-.46 4.32 4.32 0 01-1.54-1.4 3.248 3.248 0 01-.536-2.269 2.4 2.4 0 01.542-1.173 1.552 1.552 0 011.244-.565 1.787 1.787 0 011.249.674 2.441 2.441 0 01.57 1.343 3.574 3.574 0 01-1.016 2.792 4.49 4.49 0 01-2.833 1.385 7.529 7.529 0 01-3.286-.405 6.066 6.066 0 01-2.872-1.93 3.163 3.163 0 01-.67-1.7 2.21 2.21 0 01.627-1.769 1.443 1.443 0 01.923-.4 1.685 1.685 0 01.963.271 2.56 2.56 0 011.085 1.589 3.709 3.709 0 01-1.162 3.469 5.8 5.8 0 01-3.319 1.351 8.178 8.178 0 01-3.44-.339 4.753 4.753 0 01-2.617-2.034 3.487 3.487 0 01-.328-3.129 1.645 1.645 0 011.2-1.017 1.9 1.9 0 011.485.358 2.459 2.459 0 01.7 2.654 4.584 4.584 0 01-1.486 2.093 6.688 6.688 0 01-4.042 1.57 6.527 6.527 0 01-4.873-1.965 4.816 4.816 0 01-.352-.41.646.646 0 01-.1-.152 7.481 7.481 0 002.192 1.671 6.411 6.411 0 003.128.65 6.5 6.5 0 003.881-1.563 4.34 4.34 0 001.382-1.975 2.173 2.173 0 00-.613-2.327 1.593 1.593 0 00-1.24-.292 1.32 1.32 0 00-.964.837 3.16 3.16 0 00.323 2.822 4.407 4.407 0 002.439 1.875 7.836 7.836 0 003.286.313 5.448 5.448 0 003.11-1.263 3.347 3.347 0 001.049-3.113 2.187 2.187 0 00-.919-1.358 1.128 1.128 0 00-1.437.087 1.845 1.845 0 00-.515 1.476 2.8 2.8 0 00.594 1.506 5.728 5.728 0 002.7 1.814 7.2 7.2 0 003.134.4 4.159 4.159 0 002.635-1.268 3.264 3.264 0 00.949-2.535 1.881 1.881 0 00-1.528-1.765 1.271 1.271 0 00-1.023.461 2.136 2.136 0 00-.489 1.035 3 3 0 00.475 2.1 4.111 4.111 0 001.443 1.343 5.1 5.1 0 003.123.5 9.357 9.357 0 001.991-.5c.439-.166.672-.265.672-.251z"/><path class="c" d="M245.37 167.979v-13.664h26.844v13.664z"/><path class="c" d="M249.83 154.784a59.187 59.187 0 01.185 6.613 59.185 59.185 0 01-.185 6.614 59.217 59.217 0 01-.185-6.614 59.219 59.219 0 01.185-6.613zM251.865 154.614a57.416 57.416 0 01.186 6.528 57.414 57.414 0 01-.186 6.529 57.89 57.89 0 01-.185-6.529 57.892 57.892 0 01.185-6.528zM269.18 154.175a63.982 63.982 0 01.185 6.875 64 64 0 01-.185 6.876 63.845 63.845 0 01-.186-6.876 63.828 63.828 0 01.186-6.875zM266.788 154.359a60.706 60.706 0 01.185 6.7 60.7 60.7 0 01-.185 6.7 60.631 60.631 0 01-.186-6.7 60.634 60.634 0 01.186-6.7z"/><path class="a" d="M144.545 25.003h180.969v120.04H144.545z"/><g><path class="d" d="M.004 33.773a30.664 30.664 0 1131.152 30.306A30.775 30.775 0 01.004 33.773zm45.319-.731a14.662 14.662 0 10-14.424 14.964 14.71 14.71 0 0014.425-14.964z"/></g><g><path d="M.004 33.773a30.775 30.775 0 0130.167-31.3l.257 16.078a14.729 14.729 0 00.471 29.454l.257 16.074A30.764 30.764 0 01.004 33.773z" fill="#ebecff"/></g><g><path class="f" d="M27.418.007a35.035 35.035 0 0135.876 34.9l-18.719.3c-.152-9.5-7.381-15.482-16.837-15.329z"/></g><g><path class="f" d="M318.517 43.712h7.94V75.43h-7.94zM330.195 50.631h7.94V75.43h-7.94zM342.05 56.295h7.94v19.134h-7.94zM353.026 64.067h7.94V75.43h-7.94z"/></g><g><path d="M348.189 114.871a27.477 27.477 0 00-38.631 1.307 27.081 27.081 0 001.315 38.394 27.476 27.476 0 0038.626-1.308 27.08 27.08 0 00-1.31-38.393zm-9.107 28.717a13.137 13.137 0 01-18.469.625 12.949 12.949 0 01-.629-18.358 13.138 13.138 0 0118.474-.625 12.948 12.948 0 01.625 18.358z" fill="#eef6ff"/><path class="f" d="M309.558 116.179a27.478 27.478 0 0138.626-1.307l-9.726 10.36a13.139 13.139 0 00-18.469.625 12.949 12.949 0 00.629 18.358l-9.736 10.36a27.081 27.081 0 01-1.324-38.396z"/><path class="c" d="M347.073 110.432c13.49 12.525 15.105 32.887 2.5 46.3l-13.685-11.854c6.025-6.411 7.334-14.971.885-20.96z"/></g><g transform="translate(90.565 159.806)"><rect class="a" width="77.435" height="21.811" rx="3.23"/><ellipse class="h" cx="4.718" cy="4.74" rx="4.718" ry="4.74" transform="translate(7.923 6.837)"/><path class="a" d="M15.294 9.969a19.32 19.32 0 01-2.537 2.741l-.624.6-.128.124-.122-.125a13.332 13.332 0 01-1.894-2.154 13.346 13.346 0 012.145 1.9h-.25l.616-.611a19.149 19.149 0 012.794-2.475z"/><path class="h" d="M69.812 9.236c0 .1-10.393.183-23.211.183s-23.213-.082-23.213-.183 10.391-.182 23.213-.182 23.211.082 23.211.182zM70.017 13.186c0 .1-10.393.183-23.211.183s-23.214-.082-23.214-.183 10.391-.182 23.214-.182 23.211.081 23.211.182z"/></g><g><path class="d" d="M309.495 175.868l-1.418 110.067h63.327V177.368z"/><path class="f" d="M343.614 176.695l-.56 109.241h28.354V177.369zM311.485 177.849v22.513h30v-21.45z"/><path class="d" d="M321.826 184.043v3.325h9.177v-3.627zM321.826 190.163h9.478v1.36h-9.478z"/><path class="f" d="M311.485 256.739v22.513h30v-21.449z"/><path class="d" d="M321.826 262.932v3.326h9.177v-3.627zM321.826 269.053h9.478v1.36h-9.478z"/><g><path class="f" d="M311.485 203.227v22.513h30v-21.449z"/><path class="d" d="M321.826 209.42v3.326h9.177v-3.628zM321.826 215.542h9.478v1.36h-9.478z"/></g><g><path class="f" d="M311.094 230.183h29.997v22.513h-29.997z"/><path class="h" d="M321.637 240.33v3.126h8.627v-3.406zM321.637 246.083h8.91v1.279h-8.91z"/></g></g><g><path d="M422.725 453.815c0 .1-84.737.182-189.242.182-104.541 0-189.26-.081-189.26-.182s84.719-.183 189.26-.183c104.505 0 189.242.082 189.242.183z" transform="translate(-38.608 -167.697)" fill="url(#a)"/></g><g><path stroke-width=".1" stroke="#2b2f7f" fill="#fafafa" d="M133.696 29.152H321.11V152.08H133.696z"/><path class="k" d="M190.972 97.037l18.434.254a18.353 18.353 0 01-18.434 17.83h-.108z"/><path class="k" d="M221.452 121.997a1.816 1.816 0 01-.394.032l-1.127.029-4.119.048h-.052l-.034-.042-6.081-7.661-4.9-6.251.095.046-5.425-.05-1.518-.034a2.88 2.88 0 01-.536-.037 2.964 2.964 0 01.536-.037l1.518-.033 5.425-.05h.058l.037.047 4.934 6.225 6.03 7.7-.086-.041 4.119.048 1.127.029a1.828 1.828 0 01.393.032zM228.065 124.121c0 .079-2.67.142-5.964.142s-5.965-.063-5.965-.142 2.67-.141 5.965-.141 5.964.063 5.964.141zM228.065 126.331c0 .078-2.67.141-5.964.141s-5.965-.063-5.965-.141 2.67-.142 5.965-.142 5.964.064 5.964.142z"/><path class="b" d="M188.057 94.414l-.259 18.082a18.09 18.09 0 1118.694-18.082z"/><path class="k" d="M180.863 88.503a1.2 1.2 0 01-.32.075l-.917.147-3.312.465-.054.008-.041-.04-4.417-4.3a545.962 545.962 0 01-5.4-5.359l-1.615-1.647a4.895 4.895 0 01-.566-.632 4.8 4.8 0 01.642.553l1.678 1.583a602.78 602.78 0 015.462 5.3l4.381 4.333-.1-.032 3.324-.366.925-.084a1.188 1.188 0 01.33-.004zM159.54 76.424c0 .078-2.67.141-5.964.141s-5.965-.063-5.965-.141 2.67-.142 5.965-.142 5.964.064 5.964.142z"/><g><path class="k" d="M159.54 78.632c0 .079-2.67.142-5.964.142s-5.965-.063-5.965-.142 2.67-.141 5.965-.141 5.964.063 5.964.141z"/></g><g><path class="l" d="M252.548 58.688l-.074-11.237a14.341 14.341 0 00-9.27 3.614 13.291 13.291 0 00-4.468 11.638 15.967 15.967 0 00.262 1.633c0 .013 0 .026.008.039l13.54-3.047z"/><path class="b" d="M252.548 58.688l-.074-11.237a14.341 14.341 0 00-9.27 3.614 13.291 13.291 0 00-4.468 11.638 15.967 15.967 0 00.262 1.633c0 .013 0 .026.008.039l13.54-3.047z"/><path class="l" d="M266.503 55.229a13.331 13.331 0 00-10.929-7.651 20.003 20.003 0 00-.428-.038c-.091-.006-.181-.015-.273-.02q-.4-.022-.815-.024h-.075l.073 11.237.017 2.64 13.544 2.956h.016a13.335 13.335 0 00.3-2.914 14.585 14.585 0 00-1.43-6.186z"/><path class="k" d="M266.503 55.229a13.331 13.331 0 00-10.929-7.651 20.003 20.003 0 00-.428-.038c-.091-.006-.181-.015-.273-.02q-.4-.022-.815-.024h-.075l.073 11.237.017 2.64 13.544 2.956h.016a13.335 13.335 0 00.3-2.914 14.585 14.585 0 00-1.43-6.186z"/><path class="m" d="M253.273 62.731l-13.54 3.047a13.879 13.879 0 0027.1-.092l-13.544-2.955"/><path class="k" d="M305.978 60.708c0 .1-7 .183-15.634.183s-15.636-.082-15.636-.183 7-.182 15.636-.182 15.634.082 15.634.182zM305.978 57.141c0 .1-7 .182-15.634.182s-15.636-.081-15.636-.182 7-.182 15.636-.182 15.634.082 15.634.182zM305.978 53.58c0 .1-7 .182-15.634.182s-15.636-.081-15.636-.182 7-.183 15.636-.183 15.634.082 15.634.183zM305.978 64.024c0 .1-7 .183-15.634.183s-15.636-.082-15.636-.183 7-.182 15.636-.182 15.634.081 15.634.182zM296.299 67.633c0 .1-4.808.183-10.738.183s-10.739-.082-10.739-.183 4.807-.182 10.739-.182 10.738.081 10.738.182z"/></g><g><path class="m" d="M241.916 93.433h3.221v35.971h-3.221z"/><path class="l" d="M248.134 105.65h3.221v23.754h-3.221z"/><path class="m" d="M254.352 97.904h3.221v31.682h-3.221z"/><path class="l" d="M260.571 94.822h3.221v34.582h-3.221z"/><path class="m" d="M266.789 106.381h3.221v23.022h-3.221z"/><path class="l" d="M273.007 110.896h3.221v18.507h-3.221z"/><path class="m" d="M279.225 97.125h3.221v32.279h-3.221z"/><path class="l" d="M285.443 102.944h3.221v26.459h-3.221z"/><path class="m" d="M291.661 98.294h3.221v31.109h-3.221z"/><path class="l" d="M297.879 108.209h3.221v21.194h-3.221z"/><path class="m" d="M304.098 104.176h3.221v25.227h-3.221z"/><path class="k" d="M308.633 131.91c0 .073-15.277.132-34.119.132s-34.123-.059-34.123-.132 15.275-.133 34.123-.133 34.119.061 34.119.133zM246.509 134.741a21.625 21.625 0 01-4.781 0 21.623 21.623 0 014.781 0zM254.439 134.885a30.862 30.862 0 01-5.713 0 30.865 30.865 0 015.713 0zM261.201 134.885a30.863 30.863 0 01-5.713 0 30.866 30.866 0 015.713 0zM267.959 134.885a30.862 30.862 0 01-5.713 0 30.866 30.866 0 015.713 0z"/><path class="n" d="M274.726 134.885a30.862 30.862 0 01-5.713 0 30.866 30.866 0 015.713 0zM281.492 134.885a30.869 30.869 0 01-5.714 0 30.872 30.872 0 015.714 0zM288.252 134.885a30.87 30.87 0 01-5.714 0 30.873 30.873 0 015.714 0z"/><path class="k" d="M295.014 134.885a30.862 30.862 0 01-5.713 0 30.865 30.865 0 015.713 0zM301.777 134.885a30.862 30.862 0 01-5.713 0 30.865 30.865 0 015.713 0zM308.539 134.885a30.862 30.862 0 01-5.713 0 30.866 30.866 0 015.713 0z"/><path class="b" d="M248.134 105.65h3.221v23.754h-3.221zM260.571 94.822h3.221v34.582h-3.221zM273.007 110.896h3.221v18.507h-3.221zM285.443 102.944h3.221v26.459h-3.221zM297.879 108.209h3.221v21.194h-3.221z"/></g><g><path class="m" d="M156.466 52.258a3.1 3.1 0 11-3.1-3.1 3.1 3.1 0 013.1 3.1z"/></g><g><path class="k" d="M209.767 49.812c0 .1-10.454.182-23.345.182s-23.347-.081-23.347-.182 10.451-.182 23.347-.182 23.345.081 23.345.182z"/></g><g><path class="k" d="M181.819 53.562a2.828 2.828 0 01-.723.071c-.465.022-1.14.041-1.972.058-1.666.033-3.966.053-6.507.053s-4.842-.02-6.507-.053a80.427 80.427 0 01-1.972-.058 2.837 2.837 0 01-.723-.071 2.775 2.775 0 01.723-.071 80.585 80.585 0 011.972-.058c1.665-.033 3.966-.053 6.507-.053s4.841.02 6.507.053c.832.017 1.507.036 1.972.058a2.766 2.766 0 01.723.071z"/></g><g><path stroke="#125396" stroke-width=".1" fill="#fafafa" d="M31.792 40.28h98.087v111.944H31.792z"/><path class="m" d="M121.447 97.44c-.032.067-1.086-.545-3.154-1.2a20.283 20.283 0 00-9.046-.672 19.777 19.777 0 00-5.965 1.917 28.1 28.1 0 00-5.866 4.219c-1.923 1.7-3.833 3.624-6.035 5.407a20.833 20.833 0 01-7.7 4.169 11.647 11.647 0 01-4.5.271 14.58 14.58 0 01-4.168-1.286 72.875 72.875 0 01-6.981-4.152 21.794 21.794 0 00-6.566-2.944 19.515 19.515 0 00-6.246-.479 20.126 20.126 0 00-8.622 2.807c-1.85 1.131-2.723 1.981-2.772 1.922a4.334 4.334 0 01.627-.616 14.974 14.974 0 012.006-1.526 19.667 19.667 0 0115.136-2.647 22.128 22.128 0 016.759 2.956 74.748 74.748 0 006.934 4.082 11.881 11.881 0 008.226.963 20.343 20.343 0 007.456-4.032c2.168-1.741 4.086-3.657 6.038-5.357a28.222 28.222 0 016.023-4.251 19.979 19.979 0 0115.343-1 16 16 0 012.317 1 4.294 4.294 0 01.756.449z"/><path class="k" d="M58.789 112.475h8.339v22.553h-8.339zM94.174 112.475h8.339v22.553h-8.339zM105.97 99.231h8.339v35.797h-8.339zM47.998 127.929h8.339v7.59h-8.339zM70.584 122.66h8.339v12.369h-8.339zM82.38 119.82h8.339v15.208H82.38z"/><g><path class="p" d="M67.459 137.686c0 .185-2.017.335-4.505.335s-4.506-.15-4.506-.335 2.017-.335 4.506-.335 4.505.15 4.505.335zM57.084 137.686c0 .185-2.018.335-4.506.335s-4.505-.15-4.505-.335 2.017-.335 4.505-.335 4.506.15 4.506.335zM115.952 137.686c0 .185-2.281.335-5.093.335s-5.093-.15-5.093-.335 2.28-.335 5.093-.335 5.093.15 5.093.335z"/><ellipse class="p" cx="5.093" cy=".335" rx="5.093" ry=".335" transform="translate(93.378 137.351)"/><path class="p" d="M90.719 137.686c0 .185-2.018.336-4.505.336s-4.506-.151-4.506-.336 2.017-.335 4.506-.335 4.505.15 4.505.335zM78.532 137.686c0 .185-2.018.336-4.505.336s-4.506-.151-4.506-.336 2.017-.335 4.506-.335 4.505.15 4.505.335z"/></g><g><path class="a" d="M47.802 56.6h68.15v28.302h-68.15z"/><path class="k" d="M61.961 65.545a3.177 3.177 0 11-3.177-3.177 3.177 3.177 0 013.177 3.177zM65.138 63.351h22.137v1.229H65.138z"/><path class="b" d="M65.138 66.144h43.063v1.229H65.138z"/><g><path class="m" d="M61.961 75.312a3.177 3.177 0 11-3.177-3.177 3.177 3.177 0 013.177 3.177zM65.138 73.118h11.304v1.229H65.138z"/><path class="b" d="M65.138 75.911h43.063v1.229H65.138z"/></g></g></g></g><g><path class="n" d="M301.864 122.01c2.25-3.777 2.906-8.815 3.485-13.174.272-2.051.749-4.971-.691-6.259-1.542-1.379-1.684-3.5-3.457-4.566a5.458 5.458 0 00-5.861.048"/><path class="q" d="M295.622 135.394a6.072 6.072 0 01-6.531-5.822c-.127-3.3-.238-6.645-.238-6.645s-5.008-.47-5.372-5.426-.2-16.4-.2-16.4a17.269 17.269 0 0117.454 1.122l-.309 17.443v9.384c-.027 3.154-1.663 6.103-4.804 6.344z"/><path class="n" d="M288.423 111.452a2.54 2.54 0 013.387-.74 2.881 2.881 0 01.96 3.6 3.8 3.8 0 01-2.432 1.838 1.9 1.9 0 00-1.49 2.05c.143 1.244 2.213 1.711 3.146 2.74 1.453 1.6 4.641 2.28 6.788 2.534 2.111.25 1.856.27 3.085-1.465a6.654 6.654 0 001.205-4.023l.227-10.963a15.709 15.709 0 00-.25-3.934 5.284 5.284 0 00-2.075-3.253c-1.206-.794-2.733-.861-4.105-1.305a33.908 33.908 0 01-4.781-2.515c-1.606-.822-3.575-1.312-5.188-.5-1.157.581-1.933 1.736-3.059 2.377-1.6.911-3.784.7-4.562 3.06a4 4 0 00.027 2.52 5.825 5.825 0 007.919 3.113 7.844 7.844 0 00.093 3.467c.183.548.248 1.385 1.1 1.4"/><path class="r" d="M289.311 114.546c.038-.032.207.262.62.236a1.153 1.153 0 00.927-1.132 1.24 1.24 0 00-.851-1.233c-.407-.151-.7-.074-.713-.131-.022-.034.273-.224.785-.117a1.482 1.482 0 01.778.447 1.435 1.435 0 01.366 1.052 1.368 1.368 0 01-1.29 1.371.742.742 0 01-.554-.278c-.089-.12-.088-.207-.068-.215z"/><path class="n" d="M303.156 107.789a8.753 8.753 0 016.833-3.094 6.293 6.293 0 015.733 4.438c.475 1.888-.1 3.857-.35 5.789s-.008 4.19 1.568 5.334a9.122 9.122 0 003.32 1.094 3.628 3.628 0 012.751 1.955 2.789 2.789 0 01-1.706 3.246 6.279 6.279 0 01-3.966.055 3.32 3.32 0 01-1.469 3.973 4.392 4.392 0 01-4.4-.184 6.574 6.574 0 01-2.689-3.645 3.268 3.268 0 01-4.508.856 4.729 4.729 0 01-1.823-4.532 8.838 8.838 0 012.284-4.53 11.192 11.192 0 001.6-2.032 2.591 2.591 0 00.1-2.477 1.5 1.5 0 00-2.206-.443"/><path class="l" d="M306.139 112.993a1.708 1.708 0 01-1.49-.017 3.586 3.586 0 01-2.161-2.822 3.694 3.694 0 01.236-2.012 3.835 3.835 0 01.95-1.345 2.43 2.43 0 011.3-.726 11.5 11.5 0 00-1.122.911 3.672 3.672 0 00-1.006 3.116 3.163 3.163 0 003.291 2.9z"/><path class="r" d="M288.691 122.845a2.335 2.335 0 01-1.132-.111 6.1 6.1 0 01-4.016-3.545 2.337 2.337 0 01-.252-1.109 7.312 7.312 0 01.487 1 7 7 0 003.858 3.406 7.256 7.256 0 011.055.359z"/><path class="q" d="M316.741 153.107l-10.555 8.235 4.43 7.273 12.712-9.366zM288.504 125.441s.051-.881-2.25-1.007a24.186 24.186 0 00-2.559-.086 5.865 5.865 0 01-1.1-2.135 6.4 6.4 0 01.493-2.169l2.33-.214-.632-1.582-1.642.114-4.638.557-1.846 8.119-12.657 23.627a6.1 6.1 0 002.416 8.882c3.273 1.582 7.658-1.776 8.87-5.2l7.005-26.28 2.464-1.924 3.531-.648M262.009 283.074l14.88-99.518-.025-.006c.036-.147.072-.286.109-.43v-.019c2.932-11.629 7.453-15.356 7.453-15.356l26.373 1.655c2.242 4.03 2.527 13.7 2.527 13.7.307 1.186-8.179 97.006-8.179 97.006h-6.115l-4.881-90.886-26.19 93.852z"/><g><path class="s" d="M259.444 283.586a6.031 6.031 0 002.9-2.8l6.132.992v4.128l-.561.018c-2.5.062-12.7.151-14.348-.364-1.847-.574 3.559-.738 5.877-1.974z"/></g><g><path class="t" d="M303.75 128.23a17.375 17.375 0 016.98 2.749c8.34 5.405 22.284 16.836 21.127 22.129-.984 4.506-11.861 9.978-11.861 9.978l-7.064-8.5 4.33-2.476-10.646-7.081z"/><path class="t" d="M308.505 145.439l-.346 1.267-1.226 5.859-.3 8.587c6.325 8.144 6.42 15 6.42 15l-31.949 3.731c.006-6.31 2.308-14.258 2.308-14.258 1.849-3.135 1.76-12.515 1.414-12.857-2-1.978-2.48-3.429-.886-5.963 0 0-9.9 10.4-10.925 11.339-3.5 3.207-6.865 2.313-8.427.918-4.375-3.9.116-8.938.116-8.938l16.682-19.12a8.3 8.3 0 014.335-2.643 36.676 36.676 0 013.573-.634l11.139.095a18.7 18.7 0 013.319.406 7.967 7.967 0 014.864 6.029c.996 4.789-.111 11.182-.111 11.182z"/><path class="t" d="M284.59 162.09l.369-4.292h21.791l-.118 3.353z"/></g><g><path class="s" d="M305.146 280.107l5.078 5.992-11.057-.132-.234-5.86z"/></g><g><path class="k" d="M312.345 170.617c8.319 26.255-2.405 58.125.166 88.717.253 3.005 1.473 6.6-1.338 8.312a4.593 4.593 0 01-2.536.619c-2.246-.074-4.122-1.239-6.127-2.039a18.207 18.207 0 00-12.058-.468c-2.654.828-5.286 2.29-8.036 1.875-3.65-.552-6.016-4.161-9.377-5.69-3.146-1.432-6.78-.9-10.235-.984h-.1a7.754 7.754 0 01-7.161-9.82c5.022-18.392 21.677-78.14 29.049-89.047l22.041-.938c2.028 2.452 4.638 6.118 5.712 9.463z"/><path d="M294.892 192.881a93.912 93.912 0 00-3.689 56.2c.395 1.6.8 3.429-.115 4.806-1.183 1.784-4.047 1.66-5.667.262s-2.267-3.6-2.672-5.7c-3.026-15.664 2.455-31.4 8.374-46.218" opacity=".1"/></g></g><g><path class="w" d="M163.062 201.733h41.773v2.032h-41.773z"/><path class="w" d="M156.589 203.763l-7.836-29.363h32.617l7.1 29.363z"/><path class="h" d="M186.511 201.543h-29.138l-6.782-25.783h29.289z"/><path d="M151.078 177.613h29.294l-.493-1.854H150.59z" fill="#ebebeb"/><path class="c" d="M154.241 176.686a.32.32 0 10.32-.32.32.32 0 00-.32.32zM153.139 176.686a.32.32 0 10.32-.32.32.32 0 00-.32.32zM152.036 176.686a.32.32 0 10.32-.32.32.32 0 00-.32.32z"/><g><path class="b" d="M173.091 188.91l3.207 3.67a4.535 4.535 0 001.97-3.69 5.2 5.2 0 00-10.355.041z"/><path class="k" d="M172.684 189.497a7.349 7.349 0 01.915.918 174.25 174.25 0 012.372 2.607l.111.124-.137.1a5.55 5.55 0 01-5.409.531 5.288 5.288 0 01-2.224-1.789 4.558 4.558 0 01-.825-2.409l-.006-.163h.16c1.535-.008 2.806 0 3.687.013a7.928 7.928 0 011.358.065 9.565 9.565 0 01-1.412.109c-.884.041-2.133.087-3.628.126l.154-.164a4.314 4.314 0 00.8 2.22 5.018 5.018 0 002.084 1.657 5.316 5.316 0 005.084-.447l-.027.227c-.929-1.087-1.7-2-2.23-2.657a8.85 8.85 0 01-.827-1.068zM170.589 186.141a.29.29 0 10.29-.292.29.29 0 00-.29.292z"/><path class="k" d="M164.818 184.038a16.607 16.607 0 013.465-.2h.538l.052.053a13.679 13.679 0 012.005 2.244 13.629 13.629 0 01-2.259-1.988l.128.053h-.462a16.586 16.586 0 01-3.467-.162z"/><path class="k" d="M158.258 187.711a10.824 10.824 0 01-.332-1.353c-.2-.89-.475-2.191-.794-3.785l-.035-.175h.18l7.25-.062.181.149V182.526l.008.043.016.086.033.173.064.344.128.68.247 1.324.456 2.475.036.2h-.2c-2.177-.006-4.01-.032-5.282-.057l-1.47-.039a2.1 2.1 0 01-.5-.04 3.323 3.323 0 01.562-.044l1.5-.051c1.28-.036 3.073-.076 5.185-.1l-.162.2-.481-2.47-.254-1.324a213.27 213.27 0 01-.129-.679l-.066-.344-.033-.173-.016-.086-.008-.043V182.56l.179.148-7.25-.006.145-.176c.275 1.54.487 2.822.631 3.731a13.853 13.853 0 01.211 1.454zM170.157 191.979a.29.29 0 10.29-.292.29.29 0 00-.29.292z"/><path class="k" d="M165.181 191.999a19.107 19.107 0 015.266-.021 19.11 19.11 0 01-5.266.021z"/><path class="k" d="M158.284 194.286a6.231 6.231 0 01-.318-.969c-.191-.646-.466-1.6-.788-2.791l-.046-.168h.178c1.973-.036 4.6-.064 7.475-.075l.178.137V190.449l.008.031.016.063.032.125.064.25.126.494.246.967.463 1.836.054.215h-.21c-2.217 0-4.107-.029-5.426-.056l-1.529-.042a2.12 2.12 0 01-.522-.043 3.218 3.218 0 01.586-.048l1.561-.054c1.326-.037 3.174-.078 5.329-.1l-.165.214-.479-1.832-.25-.966-.128-.494-.064-.249-.032-.125-.016-.062-.008-.032v-.036l.177.137c-2.875.011-5.5 0-7.476-.016l.132-.171c.277 1.146.49 2.089.635 2.755a8.332 8.332 0 01.197 1.076zM158.837 184.129a16.965 16.965 0 014.96-.02 16.9 16.9 0 01-4.96.02zM158.894 184.941a17.165 17.165 0 014.989-.02 17.092 17.092 0 01-4.989.02zM159.042 185.724a15.97 15.97 0 014.816-.019 15.962 15.962 0 01-4.816.019z"/><path class="k" d="M158.98 191.932a15.393 15.393 0 014.728-.019 15.391 15.391 0 01-4.728.019z"/><g><path class="k" d="M159.273 192.83a11.22 11.22 0 014.032-.016 11.218 11.218 0 01-4.032.016z"/></g></g><g><path d="M113.592 203.668v3.851h2.521v77.964h5.174v-77.964h27.462v77.964h5.18v-77.964h119.127v77.947h5.173v-77.947h2.24v-3.851z" fill="#343434"/></g><g><path class="n" d="M225.788 232.72a40.228 40.228 0 006.729 0 40.055 40.055 0 00-6.729 0z"/></g><g transform="translate(176.597 233.336)"><ellipse cx=".183" cy=".09" rx=".183" ry=".09" fill="#455a64"/></g><g><path class="aa" d="M209.754 164.119l-19.33-19.635-.418-2.126a24.483 24.483 0 01-.236-1.316 5.228 5.228 0 01.03-1.73 7.847 7.847 0 01.6-2.058c.325-.569-.2-1.255-.734-1.02s-1.473 1.779-1.675 3.9-2.011-.693-2.689-1.706-2.915-4.05-3.382-4.086c-.684-.053-.859.688-.16 1.685s2.593 4.133 2.056 4.469h-.02a2.529 2.529 0 00-2.67 1.324c-.488.937-1.031 2.266-.586 2.879a34.755 34.755 0 003.082 3.263l.647.557s16.72 24.228 20.364 25.015c2.267.489 37.306 3.4 37.306 3.4l2.643-9.653z"/><path class="aa" d="M180.387 144.283l1.788 1.718a2.113 2.113 0 00.673.494.641.641 0 00.886-.844 2.127 2.127 0 00-.411-.636l-1.738-2.088"/><path class="ab" d="M181.586 142.93c.039-.032.374.3.886.863l.883 1a3.28 3.28 0 01.493.667.945.945 0 01-.049.993.875.875 0 01-.978.224 1.974 1.974 0 01-.7-.493l-.936-.953a4.211 4.211 0 01-.8-.945 4.219 4.219 0 01.977.759l.989.9a1.731 1.731 0 00.585.4.531.531 0 00.576-.112.6.6 0 00.012-.613 3.251 3.251 0 00-.428-.606l-.824-1.051a4.224 4.224 0 01-.686-1.033z"/><path class="aa" d="M181.656 143.038l1.788 1.717a2.125 2.125 0 00.673.494.642.642 0 00.886-.844 2.111 2.111 0 00-.412-.637l-1.737-2.088"/><path class="ab" d="M182.855 141.681c.039-.032.374.3.885.862l.884 1a3.3 3.3 0 01.493.667.945.945 0 01-.049.993.875.875 0 01-.978.224 1.974 1.974 0 01-.7-.493l-.936-.953a4.235 4.235 0 01-.8-.944 4.18 4.18 0 01.977.759l.989.9a1.736 1.736 0 00.585.4.533.533 0 00.576-.112.605.605 0 00.012-.613 3.25 3.25 0 00-.428-.606l-.824-1.051a4.228 4.228 0 01-.686-1.033z"/><path class="aa" d="M183.048 142.014l1.788 1.717a2.136 2.136 0 00.674.494.642.642 0 00.886-.844 2.125 2.125 0 00-.412-.637l-1.737-2.088"/><path class="ab" d="M184.247 140.654c.039-.032.374.3.885.863l.884 1a3.278 3.278 0 01.493.667.945.945 0 01-.049.993.875.875 0 01-.978.224 1.973 1.973 0 01-.7-.493l-.936-.953a4.214 4.214 0 01-.8-.944 4.175 4.175 0 01.977.759l.989.9a1.74 1.74 0 00.584.4.534.534 0 00.576-.112.607.607 0 00.012-.613 3.287 3.287 0 00-.428-.606l-.824-1.051a4.2 4.2 0 01-.685-1.034z"/><g><path class="ab" d="M185.874 144.985c0-.058.443-.147 1.089.051l-.206.176a3.057 3.057 0 01-.046-1.228 3.131 3.131 0 01.669-1.494c.276-.322.508-.449.537-.414a6.4 6.4 0 00-.846 1.967 3.638 3.638 0 00-.011 1.108l.038.28-.244-.1c-.558-.242-.983-.274-.98-.346z"/></g><g><path class="aa" d="M235.066 134.682l.082 26.9-10.487.5-.425-6.446s-5.059.768-6.117-3.038c-.675-2.431-.506-21.223-.506-21.223z"/><path class="n" d="M215.007 134.024c.777 1.607 4.478 4.548 4.478 4.548l1.672 4.48c1.452-1.137 3.4-1.072 3.771 1.481.267 1.844-2.026 2.217-2.026 2.217a33.445 33.445 0 004.184 6.27c2.1 2.338 3.282 2.574 5.563 2.612h2.515s5.147-4.3 4.13-15.63-11.2-8.024-13.633-10.854c-3.958-4.61-13.248-.489-10.654 4.876z"/><path class="n" d="M240.954 136.647c.165-.096.475-.121 1.098.04a2.583 2.583 0 00-1.057-.692 3.218 3.218 0 00-1.163-3.38 1.93 1.93 0 01.457 1.612c-1.126-2.286-4.353-4.723-14.661-7.16-13.588-3.22-11.95 6.67-10.563 8.232s6.605.182 9.718 1.454 2.234 6.097 3.12 7.08.812-.274 2.49-.466 1.038 2.287.109 3.727 3.62 7.545 3.62 7.545l2.744-1.539c2.744-1.538 4.428-13.58 4.15-15.852z"/></g><g><path class="s" d="M226.724 276.491l-3.428-4.4 7.46-4.046 5.083 6.387-.482.434c-2.163 1.912-11.131 9.569-13.005 10.3-2.091.821 4.372-8.675 4.372-8.675z"/><path class="n" d="M224.946 283.101a2.754 2.754 0 00-1.8-.66 1.688 1.688 0 011.8.66zM226.395 279.964a1.1 1.1 0 01-.507-.11c-.269-.093-.477-.2-.465-.229a1.1 1.1 0 01.507.11c.268.094.476.196.465.229zM226.78 279.089c0 .035-.2.05-.441.036s-.435-.056-.433-.091.2-.05.441-.036.435.056.433.091zM226.589 277.983c.022.027-.15.2-.384.393s-.442.321-.464.294.15-.2.384-.393.442-.321.464-.294zM231.154 276.732a8.581 8.581 0 01-2.377 1.916c-.02-.031.541-.421 1.195-.95s1.156-.995 1.182-.966z"/></g><g><path class="s" d="M191.685 281.449v-3.729h7.065l.064 8.158-.647.044c-2.882.17-14.1.062-16.593.088-2.151-.645 10.111-4.561 10.111-4.561z"/></g><g><path class="aa" d="M214.074 187.091l-4.183 12.595c-1.129 3.4-4.1 3.983-7.685 3.983H178.94v-5.219l21.255-3.035 5.065-12.94zM176.383 197.364l-1.846-.874s-1.989-3.846-2.447-3.692-.59 1.286.209 3.052l-2.453-.7s-5.317 2.457-5.081 2.787a1.227 1.227 0 001.828.522c1.158-.592 2.675-1.287 2.675-1.287l2.865.818-3.695.469-3.474 3.161a1.7 1.7 0 002.125-.053l9.023 1.939 2.827.16v-5.219z"/><path class="ab" d="M167.09 201.567c.038.025.206-.241.531-.6a2.752 2.752 0 01.657-.508 2.692 2.692 0 01.974-.255 13.509 13.509 0 002.708-.462 13.346 13.346 0 00-2.743.182 2.655 2.655 0 00-1.071.31 2.519 2.519 0 00-.678.6 1.594 1.594 0 00-.378.733zM168.502 201.932c.034 0 .062-.187.315-.241s.669-.1 1.1-.14a8.9 8.9 0 001.586-.161 3.186 3.186 0 00-1.614-.12 4.864 4.864 0 00-1.136.233.454.454 0 00-.274.284c-.027.097.006.148.023.145z"/></g><g><path class="k" d="M216.046 184.344l-1.79 6.064-11.356-5.141c.408-1.269 2.286-6.922 5.882-15.892a15.42 15.42 0 0111.771-9.488 67.329 67.329 0 0110.873-1.066c6.368.07 15.742 4.051 17 10.293.962 4.764.034 13.176.034 23.4l-.831 19.529-32.632 1.107z"/><path d="M248.427 187.991c-3.971.813-8.047-.006-12.093-.247-2.454-.145-5.175-.411-7.115 1.1-1.539 1.2-2.158 3.206-2.6 5.1-1.692 7.231-2 12.079-2.381 19.5l19.642 1.19z" opacity=".3"/></g><g><path class="t" d="M198.052 214.631a11.63 11.63 0 00-4.754 15.578l28.4 48.763 13.1-7.914-22.055-44.027 15.984-10.434"/><path class="t" d="M232.633 212.212l-38.988 1.38a11.63 11.63 0 00-11.217 11.8l1.619 55.685 16.4-.036-.547-52.65 32.736-.861z"/><path class="t" d="M199.898 230.299a2.84 2.84 0 01.047.515l.063 1.478c.049 1.284.1 3.141.146 5.437.1 4.592.164 10.936.2 17.942l.092 17.943.031 5.437v1.479a2.784 2.784 0 01-.027.516 2.705 2.705 0 01-.047-.515l-.064-1.478a329.12 329.12 0 01-.147-5.437c-.1-4.591-.164-10.936-.2-17.944l-.092-17.94-.03-5.437v-1.479a2.708 2.708 0 01.028-.517z"/></g></g><g><path class="w" d="M249.525 176.875h-11.8a8.6 8.6 0 00-8.6 8.6v41.153h-23.56a5.954 5.954 0 00-5.954 5.953h53.809v-.034a4.91 4.91 0 004.7-4.9v-42.175a8.6 8.6 0 00-8.595-8.597zM231.07 275.773v-43.171h-3.835v43.171c-2.341 4.615-7.845 7.738-14.55 10.294h34.19c-6.946-2.821-13.212-4.985-15.805-10.294z"/></g></g></svg>